<?xml version="1.0" encoding="utf-8"?>
<!-- Generator: Adobe Illustrator 22.0.1, SVG Export Plug-In . SVG Version: 6.00 Build 0)  -->
<svg version="1.1" id="圖層_1" xmlns="http://www.w3.org/2000/svg" xmlns:xlink="http://www.w3.org/1999/xlink" x="0px" y="0px"
	 viewBox="0 0 490.2 373.9" style="enable-background:new 0 0 490.2 373.9;" xml:space="preserve">
<style type="text/css">
	.st0{fill:#243B4A;}
</style>
<g>
	<polygon class="st0" points="73.5,77.5 137.7,67 202.7,151.6 77.4,226.4 0,172 	"/>
	<polygon class="st0" points="144.3,59.1 235.5,15.2 317.5,34.2 169.9,93.3 	"/>
	<polygon class="st0" points="110.8,63.7 223,12.2 170.5,0 	"/>
	<polygon class="st0" points="84.8,239.9 211,154.3 106.8,289.4 	"/>
	<polygon class="st0" points="210,167 110.8,299.6 144.3,373.9 	"/>
	<polygon class="st0" points="218.6,153 361.5,139.4 439.2,231.1 176.9,311 	"/>
	<polygon class="st0" points="230.9,311 442.5,241.2 395.3,365.7 	"/>
	<polygon class="st0" points="176.9,373.9 223.9,323.5 388.3,373.6 	"/>
	<polygon class="st0" points="451.4,244.6 433.3,294.9 490.2,290.8 	"/>
</g>
</svg>
