<?xml version="1.0" encoding="utf-8"?>
<!-- Generator: Adobe Illustrator 22.0.1, SVG Export Plug-In . SVG Version: 6.00 Build 0)  -->
<svg version="1.1" id="圖層_2" xmlns="http://www.w3.org/2000/svg" xmlns:xlink="http://www.w3.org/1999/xlink" x="0px" y="0px"
	 viewBox="0 0 280.7 370.4" style="enable-background:new 0 0 280.7 370.4;" xml:space="preserve">
<style type="text/css">
	.st0{display:none;fill:#003E8C;}
	.st1{display:none;fill:#85A3C8;}
	.st2{fill:#B6C8DE;}
	.st3{display:none;fill:#4F7DB3;}
	.st4{display:none;fill:#0082EB;}
	.st5{fill:#3365A3;}
	.st6{fill:#85A3C8;}
	.st7{fill:#4F7DB3;}
	.st8{fill:#003E8C;}
	.st9{fill:#2651A0;}
	.st10{fill:#668BBA;}
</style>
<polygon class="st0" points="166.9,188.6 59,213.4 0.7,301 0,351.5 45.1,370.4 180.6,367.3 216.8,346.1 216.2,262.1 "/>
<polygon class="st1" points="167,189.1 183.3,50.6 255.4,0 280.7,82.9 267.6,144.4 221,226.4 216.2,262.1 "/>
<polygon class="st1" points="130.8,14.3 165.3,58.4 167,189.1 114.5,200.7 97.1,62.6 "/>
<polygon class="st2" points="167,189.1 91.6,280.9 47.3,302.8 23.3,320.8 0.5,300.4 59.3,213 "/>
<polygon class="st3" points="198.7,69.4 197.6,209.8 258.3,103.1 249.6,21.1 "/>
<polygon class="st4" points="45.1,370.4 29.1,340.1 23.3,317.8 47.3,302.8 91.6,280.9 154.3,279.5 188.3,313.1 180.6,367.3 "/>
<polygon class="st4" points="0,351.5 0.5,300.4 23.3,320.8 29.1,340.1 45.1,370.4 "/>
<polygon class="st5" points="167,189.1 154.3,279.5 216.2,262.1 "/>
<polygon class="st5" points="188.3,313.1 216.2,306.4 216.2,262.1 154.3,279.5 "/>
<polygon class="st6" points="91.6,280.9 167,189.1 154.3,279.5 "/>
<polygon class="st7" points="108.4,347.1 91.6,280.9 47.3,302.8 23.3,317.8 29.1,340.1 34.8,350.9 91.6,355.8 "/>
<polygon class="st5" points="22.6,361 34.8,350.9 29.1,340.1 23.3,322.8 10.8,308.8 0.5,300.4 0,351.5 "/>
<polygon class="st8" points="91.6,355.8 108.4,368.9 45.1,370.4 22.6,361 34.8,350.9 "/>
<polygon class="st9" points="108.4,347.1 180.6,367.3 108.4,368.9 91.6,355.8 "/>
<polygon class="st10" points="91.6,280.9 154.3,279.5 188.3,313.1 180.6,367.3 108.4,347.1 "/>
<polygon class="st8" points="216.8,346.1 216.2,306.4 188.3,313.1 180.6,367.3 "/>
<polygon points="10.8,308.8 23.3,317.8 47.3,302.8 26.3,323.8 29.1,340.1 23.3,322.8 "/>
<polygon class="st10" points="280.7,82.9 221,226.4 267.6,144.4 "/>
<polygon class="st2" points="255.4,0 221,226.4 280.7,82.9 "/>
<polygon class="st10" points="183.3,50.6 216.2,262.1 167,189.1 "/>
<polygon class="st6" points="255.4,0 183.3,50.6 216.2,262.1 "/>
<polygon class="st5" points="165.3,58.4 114.5,200.7 167,189.1 "/>
<polygon class="st10" points="130.8,14.3 165.3,58.4 114.5,200.7 "/>
<polygon class="st6" points="97.1,62.6 130.8,14.3 114.5,200.7 "/>
</svg>
