<?xml version="1.0" encoding="utf-8"?>
<!-- Generator: Adobe Illustrator 22.0.1, SVG Export Plug-In . SVG Version: 6.00 Build 0)  -->
<svg version="1.1" id="圖層_1" xmlns="http://www.w3.org/2000/svg" xmlns:xlink="http://www.w3.org/1999/xlink" x="0px" y="0px"
	 viewBox="0 0 490.2 373.9" style="enable-background:new 0 0 490.2 373.9;" xml:space="preserve">
<style type="text/css">
	.st0{fill:#243B4A;}
</style>
<g>
	<path class="st0" d="M136.5,70.3l61.8,80.5l-120.7,72L4.3,171.3l70.8-91L136.5,70.3 M137.7,67L73.5,77.5L0,172l77.4,54.4
		l125.3-74.8L137.7,67L137.7,67z"/>
	<path class="st0" d="M235.8,18.4L307.5,35L170.9,89.6l-22-29.3L235.8,18.4 M235.5,15.2l-91.2,43.9l25.6,34.1l147.6-59L235.5,15.2
		L235.5,15.2z"/>
	<path class="st0" d="M171.5,3.3l42.2,9.8l-90.3,41.5L171.5,3.3 M170.5,0l-59.7,63.7L223,12.2L170.5,0L170.5,0z"/>
	<path class="st0" d="M197.2,167.3l-89.7,116.3l-18.9-42.6L197.2,167.3 M211,154.3L84.8,239.9l22,49.5L211,154.3L211,154.3z"/>
	<path class="st0" d="M201.8,183l-58,182.5L114.3,300L201.8,183 M210,167L210,167L210,167z M210,167l-99.2,132.6l33.5,74.3L210,167
		L210,167z"/>
	<path class="st0" d="M360.3,142.5l73.7,87l-252.8,77l39.8-150.7L360.3,142.5 M361.5,139.4l-143,13.6l-41.7,158l262.3-79.9
		L361.5,139.4L361.5,139.4z"/>
	<path class="st0" d="M437.4,246l-44,115.9l-153.1-51L437.4,246 M442.5,241.2L230.9,311l164.4,54.7L442.5,241.2L442.5,241.2z"/>
	<path class="st0" d="M224.8,326.9l143.4,43.7l-184.5,0.2L224.8,326.9 M223.9,323.5l-47.1,50.4l211.4-0.3L223.9,323.5L223.9,323.5z"
		/>
	<path class="st0" d="M452.4,250.5l31.7,37.7l-46.4,3.4L452.4,250.5 M451.4,244.6l-18,50.3l56.8-4.1L451.4,244.6L451.4,244.6z"/>
</g>
</svg>
